<svg xmlns="http://www.w3.org/2000/svg" viewBox="0 0 64 64" role="img" aria-labelledby="title">
  <title>Event-Job-Planer Logo</title>
  <rect width="64" height="64" rx="14" fill="#087f72"/>
  <path d="M18 14h28a6 6 0 0 1 6 6v27a6 6 0 0 1-6 6H18a6 6 0 0 1-6-6V20a6 6 0 0 1 6-6Z" fill="#ffffff"/>
  <path d="M12 25h40v-5a6 6 0 0 0-6-6H18a6 6 0 0 0-6 6v5Z" fill="#b7791f"/>
  <path d="M22 10v9M42 10v9" stroke="#ffffff" stroke-width="4" stroke-linecap="round"/>
  <path d="M22 34h7M35 34h7M22 43h7" stroke="#d9dee8" stroke-width="4" stroke-linecap="round"/>
  <path d="m34 43 5 5 10-13" fill="none" stroke="#6d5bd0" stroke-width="5" stroke-linecap="round" stroke-linejoin="round"/>
</svg>
